<svg width="320" height="320" viewBox="0 0 320 320" fill="none" xmlns="http://www.w3.org/2000/svg">
<path d="M0 135C0 95.7963 0 76.1945 7.62954 61.2207C14.3407 48.0493 25.0493 37.3407 38.2207 30.6295C53.1945 23 72.7963 23 112 23H208C247.204 23 266.806 23 281.779 30.6295C294.951 37.3407 305.659 48.0493 312.37 61.2207C320 76.1945 320 95.7963 320 135V185C320 224.204 320 243.806 312.37 258.779C305.659 271.951 294.951 282.659 281.779 289.37C266.806 297 247.204 297 208 297H112C72.7963 297 53.1945 297 38.2207 289.37C25.0493 282.659 14.3407 271.951 7.62954 258.779C0 243.806 0 224.204 0 185V135Z" fill="black" style="fill:black;fill-opacity:1;"/>
<path d="M236.363 108C236.363 102.979 240.433 98.9091 245.454 98.9091H263.636C268.657 98.9091 272.727 102.979 272.727 108V153.455C272.727 158.475 268.657 162.545 263.636 162.545H245.454C240.433 162.545 236.363 158.475 236.363 153.455V108Z" fill="white" style="fill:white;fill-opacity:1;"/>
<path d="M276.363 200.727C276.363 212.777 266.595 222.545 254.545 222.545C242.495 222.545 232.727 212.777 232.727 200.727C232.727 188.677 242.495 178.909 254.545 178.909C266.595 178.909 276.363 188.677 276.363 200.727Z" fill="white" style="fill:white;fill-opacity:1;"/>
<path d="M56.3631 222.545C51.3424 222.545 47.2722 218.475 47.2722 213.455V108C47.2722 102.979 51.3424 98.9091 56.3631 98.9091H79.2665C82.0282 98.9091 84.6401 100.164 86.3653 102.321L112.901 135.49C116.54 140.039 123.459 140.039 127.098 135.49L153.634 102.321C155.359 100.164 157.971 98.9091 160.732 98.9091H183.636C188.657 98.9091 192.727 102.979 192.727 108V213.455C192.727 218.475 188.657 222.545 183.636 222.545H165.454C160.433 222.545 156.363 218.475 156.363 213.455V177.553C156.363 168.959 145.542 165.163 140.173 171.873L127.098 188.217C123.459 192.767 116.54 192.767 112.901 188.217L99.8256 171.873C94.4573 165.163 83.6359 168.959 83.6359 177.553V213.455C83.6359 218.475 79.5657 222.545 74.5449 222.545H56.3631Z" fill="white" style="fill:white;fill-opacity:1;"/>
</svg>
