<svg width="464" height="232" viewBox="0 0 464 232" fill="none" xmlns="http://www.w3.org/2000/svg">
<g clip-path="url(#clip0_936_5443)">
<rect x="181.5" y="-36.62" width="323" height="180.44" stroke="#FF8A6A"/>
<path d="M475.34 53.6C475.34 124.9 417.54 182.7 346.24 182.7C274.94 182.7 217.14 124.9 217.14 53.6C217.14 -17.7 274.94 -75.5 346.24 -75.5C417.54 -75.5 475.34 -17.7 475.34 53.6Z" stroke="#FF8A6A"/>
<path d="M196 133.12C195.46 133.12 194.987 132.973 194.58 132.68C194.18 132.387 193.87 131.97 193.65 131.43C193.43 130.883 193.32 130.24 193.32 129.5C193.32 128.753 193.43 128.11 193.65 127.57C193.87 127.03 194.18 126.613 194.58 126.32C194.987 126.027 195.46 125.88 196 125.88C196.547 125.88 197.02 126.027 197.42 126.32C197.82 126.613 198.13 127.03 198.35 127.57C198.57 128.11 198.68 128.753 198.68 129.5C198.68 130.24 198.57 130.883 198.35 131.43C198.13 131.97 197.82 132.387 197.42 132.68C197.02 132.973 196.547 133.12 196 133.12ZM194.4 129.5C194.4 129.873 194.433 130.213 194.5 130.52C194.567 130.827 194.66 131.093 194.78 131.32L196.53 126.99C196.363 126.91 196.187 126.87 196 126.87C195.533 126.87 195.15 127.107 194.85 127.58C194.55 128.047 194.4 128.687 194.4 129.5ZM196 132.14C196.313 132.14 196.59 132.033 196.83 131.82C197.07 131.607 197.257 131.303 197.39 130.91C197.53 130.51 197.6 130.04 197.6 129.5C197.6 129.127 197.567 128.787 197.5 128.48C197.433 128.173 197.34 127.91 197.22 127.69L195.47 132.02C195.637 132.1 195.813 132.14 196 132.14Z" fill="#FF8A6A"/>
<path d="M340.66 57V56.05H342.39V51.25L340.74 51.55V50.69L342.8 50H343.45V56.05H345.31V57H340.66Z" fill="#FF8A6A"/>
</g>
<defs>
<clipPath id="clip0_936_5443">
<rect width="464" height="232" fill="white"/>
</clipPath>
</defs>
</svg>
