<svg width="114" height="114" viewBox="0 0 114 114" fill="none" xmlns="http://www.w3.org/2000/svg">
<path d="M84.9748 65.9612C87.6632 65.9612 89.8426 63.7818 89.8426 61.0934C89.8426 58.405 87.6632 56.2256 84.9748 56.2256C82.2863 56.2256 80.1069 58.405 80.1069 61.0934C80.1069 63.7818 82.2863 65.9612 84.9748 65.9612Z" fill="#BC11BC"/>
<path d="M33.3025 69.8171C30.9834 68.1116 27.7211 68.6087 26.016 70.9274C24.3109 73.246 24.8087 76.5082 27.1279 78.2136L45.9832 92.0794C48.3024 93.7849 51.5647 93.2878 53.2697 90.9692C54.9748 88.6505 54.477 85.3884 52.1578 83.6829L33.3025 69.8171Z" fill="#0FD452"/>
<path d="M35.7332 44.1832C33.0902 45.3242 31.8724 48.3912 33.0132 51.0336C34.1539 53.6759 37.2211 54.8931 39.8641 53.7521L61.3521 44.4757C63.995 43.3347 65.2128 40.2677 64.0721 37.6253C62.9314 34.983 59.8641 33.7658 57.2212 34.9068L35.7332 44.1832Z" fill="#0FD452"/>
<path d="M31.3545 39.3884C28.8746 40.8504 28.0492 44.0454 29.5108 46.5247C30.9724 49.004 34.1676 49.8288 36.6474 48.3669L56.8096 36.481C59.2894 35.0191 60.1149 31.8241 58.6533 29.3447C57.1917 26.8654 53.9965 26.0406 51.5166 27.5026L31.3545 39.3884Z" fill="#0FD452"/>
<path d="M21.9498 38.8773C19.5649 40.4896 18.9383 43.7294 20.5502 46.1138C22.162 48.4981 25.4021 49.124 27.787 47.5118L47.1767 34.4037C49.5616 32.7914 50.1882 29.5515 48.5763 27.1672C46.9644 24.7828 43.7244 24.1569 41.3395 25.7692L21.9498 38.8773Z" fill="#0FD452"/>
<path d="M25.1679 43.5885L15.9475 38.7292L23.6068 24.196C24.948 21.6511 28.1032 20.6738 30.6482 22.015C33.1931 23.3562 34.1704 26.5114 32.8292 29.0564L25.1699 43.5896L25.1679 43.5885Z" fill="#0FD452"/>
<path d="M17.3083 36.1531L14.2188 41.8095C7.72299 53.7049 11.3374 68.5882 22.5646 76.1801L44.9334 91.3062L53.0017 84.4589L42.3457 72.9218C38.3844 68.6321 38.9579 61.8704 43.5829 58.3091L62.4206 43.8537L17.3083 36.1531Z" fill="#0FD452"/>
<path d="M30.8112 32.8878L23.2725 38.2783" stroke="#202124" stroke-width="0.69375" stroke-linecap="round" stroke-linejoin="round"/>
<path d="M49.3093 28.8015L30.4185 41.6706" stroke="#202124" stroke-width="0.69375" stroke-linecap="round" stroke-linejoin="round"/>
<path d="M34.9761 46.0898L57.2223 34.9065C57.7265 34.6891 58.2444 34.5573 58.7624 34.5042" fill="#0FD452"/>
<path d="M34.9761 46.0898L57.2223 34.9065C57.7265 34.6891 58.2444 34.5573 58.7624 34.5042" stroke="#202124" stroke-width="0.69375" stroke-linecap="round" stroke-linejoin="round"/>
<path d="M73.6688 57.028H58.1704C56.5011 57.028 55.1479 58.3811 55.1479 60.0504V75.5488C55.1479 77.218 56.5011 78.5712 58.1704 78.5712H73.6688C75.338 78.5712 76.6912 77.218 76.6912 75.5488V60.0504C76.6912 58.3811 75.338 57.028 73.6688 57.028Z" fill="#00E0E5"/>
<path d="M85.8809 75.8262L96.1762 79.9286C97.5197 80.4651 98.9396 79.3436 98.7315 77.9121L97.1359 66.9439C96.9278 65.5125 95.2466 64.8419 94.1111 65.7391L85.4115 72.6049C84.2761 73.5022 84.5351 75.292 85.8809 75.8262Z" fill="#007D8E"/>
</svg>
