<svg width="114" height="114" viewBox="0 0 114 114" fill="none" xmlns="http://www.w3.org/2000/svg">
<path d="M15.8035 75.5489L39.0197 43.0643L45.5171 47.7095L24.7435 76.7788L15.8035 75.5489Z" fill="#202124"/>
<path d="M42.969 58.8179L43.432 47.9252L51.4117 48.2633L50.9976 58.0412L65.8912 52.3229L71.4453 58.7468L52.7371 65.9278L52.6391 65.9645C51.8478 66.2438 51.0295 66.381 50.2136 66.381C48.6824 66.381 47.1707 65.8959 45.9041 64.96C43.9637 63.5243 42.8636 61.2287 42.9665 58.8179H42.969Z" fill="#202124"/>
<path d="M44.6226 19.0448C41.2122 21.1077 36.4813 24.8758 35.6581 30.4324C34.5066 38.216 44.2551 43.4419 47.9473 44.3386" stroke="#00E0E5" stroke-width="6.15685" stroke-miterlimit="10"/>
<path d="M43.1188 20.8806L42.7031 18.5258L45.0579 18.1101L45.4736 20.4649L43.1188 20.8806Z" fill="#00E0E5"/>
<path d="M42.1306 23.3394L41.9493 21.3623L49.1058 20.6934C49.5223 20.6542 49.8898 20.9605 49.929 21.377C49.9657 21.7812 49.6791 22.1414 49.2773 22.1953L42.1331 23.3394H42.1306Z" fill="#00E0E5"/>
<path d="M42.4961 17.8026C42.2437 17.4571 40.7737 17.9128 41.1192 17.6605L46.9232 13.6278C47.2687 13.3754 47.7538 13.4538 48.0061 13.7993C48.2585 14.1447 48.1801 14.6298 47.8347 14.8822L43.579 17.9741C43.2336 18.2264 42.7484 18.148 42.4961 17.8026V17.8026Z" fill="#00E0E5"/>
<path d="M44.9157 18.7062C44.5698 18.9575 44.0856 18.8807 43.8343 18.5347C43.5831 18.1888 43.6599 17.7046 44.0058 17.4534L48.2639 14.3608C48.6099 14.1096 49.094 14.1863 49.3453 14.5323C49.5965 14.8783 49.5198 15.3624 49.1738 15.6137L44.9157 18.7062Z" fill="#00E0E5"/>
<path d="M45.9045 19.8376C45.5585 20.0888 45.0744 20.0121 44.8231 19.6661C44.5719 19.3201 44.6486 18.836 44.9946 18.5847L49.2527 15.4922C49.5986 15.2409 50.0828 15.3177 50.334 15.6637C50.5853 16.0096 50.5085 16.4938 50.1626 16.745L45.9045 19.8376Z" fill="#00E0E5"/>
<path d="M46.0861 21.4348C45.7402 21.6861 45.256 21.6093 45.0048 21.2634C44.7535 20.9174 44.8303 20.4333 45.1762 20.182L49.4343 17.0895C49.7803 16.8382 50.2644 16.915 50.5157 17.2609C50.7669 17.6069 50.6902 18.091 50.3442 18.3423L46.0861 21.4348Z" fill="#00E0E5"/>
<path d="M44.9459 16.21C45.0047 16.2002 46.9941 18.0181 47.0112 19.6792" stroke="#202124" stroke-width="0.49" stroke-miterlimit="10" stroke-linecap="round"/>
<path d="M46.7495 20.8994C46.7495 20.8994 45.2183 19.0815 43.3318 19.9561" stroke="#202124" stroke-width="0.49" stroke-miterlimit="10" stroke-linecap="round"/>
<path d="M48.001 14.6445L45.3893 16.6168" stroke="#202124" stroke-width="0.49" stroke-miterlimit="10" stroke-linecap="round"/>
<path d="M49.1333 15.6466L46.3232 17.5993" stroke="#202124" stroke-width="0.49" stroke-miterlimit="10" stroke-linecap="round"/>
<path d="M49.7358 17.0332L46.8816 18.7776" stroke="#202124" stroke-width="0.49" stroke-miterlimit="10" stroke-linecap="round"/>
<path d="M74.6011 25.0496C72.1878 28.2223 60.8566 40.2592 47.1145 43.3756" stroke="#00E0E5" stroke-width="6.15685" stroke-miterlimit="10"/>
<path d="M73.8599 24.0843L75.9761 25.1976L74.8627 27.3138L72.7465 26.2004L73.8599 24.0843Z" fill="#00E0E5"/>
<path d="M70.0979 26.3971L71.9256 27.1737L74.7431 20.5612C74.9073 20.1765 74.726 19.7331 74.3438 19.5689C73.9714 19.4097 73.5377 19.5738 73.3638 19.9413L70.0979 26.3995V26.3971Z" fill="#00E0E5"/>
<path d="M75.4827 27.7372C75.7351 28.0827 74.8531 29.3444 75.1985 29.0896L80.8066 24.7899C81.152 24.5375 81.2255 24.0524 80.9732 23.707C80.7208 23.3615 80.2357 23.288 79.8903 23.5404L75.6493 26.6519C75.3039 26.9042 75.2304 27.3893 75.4827 27.7348V27.7372Z" fill="#00E0E5"/>
<path d="M79.6022 22.0472C79.9469 21.7942 80.4314 21.8685 80.6845 22.2132C80.9375 22.5579 80.8632 23.0424 80.5185 23.2954L76.2761 26.4094C75.9314 26.6625 75.4469 26.5881 75.1939 26.2435C74.9409 25.8988 75.0152 25.4142 75.3599 25.1612L79.6022 22.0472Z" fill="#00E0E5"/>
<path d="M78.8278 20.756C79.1725 20.503 79.657 20.5773 79.91 20.922C80.1631 21.2667 80.0887 21.7512 79.7441 22.0043L75.5017 25.1183C75.157 25.3713 74.6725 25.297 74.4195 24.9523C74.1664 24.6076 74.2408 24.1231 74.5855 23.8701L78.8278 20.756Z" fill="#00E0E5"/>
<path d="M77.362 20.0969C77.7067 19.8439 78.1912 19.9182 78.4442 20.2629C78.6972 20.6075 78.6229 21.0921 78.2782 21.3451L74.0359 24.4591C73.6912 24.7121 73.2067 24.6378 72.9536 24.2931C72.7006 23.9485 72.7749 23.4639 73.1196 23.2109L77.362 20.0969Z" fill="#00E0E5"/>
<path d="M77.7466 25.8874C77.7735 25.836 76.649 23.3835 75.0712 22.8641" stroke="#202124" stroke-width="0.49" stroke-miterlimit="10" stroke-linecap="round"/>
<path d="M73.8289 22.7417C73.8289 22.7417 75.0956 24.7531 73.6868 26.2844" stroke="#202124" stroke-width="0.49" stroke-miterlimit="10" stroke-linecap="round"/>
<path d="M80.1699 23.4546L77.4945 25.3411" stroke="#202124" stroke-width="0.49" stroke-miterlimit="10" stroke-linecap="round"/>
<path d="M79.5571 22.0703L76.8425 24.1528" stroke="#202124" stroke-width="0.49" stroke-miterlimit="10" stroke-linecap="round"/>
<path d="M78.4229 21.0732L75.892 23.2611" stroke="#202124" stroke-width="0.49" stroke-miterlimit="10" stroke-linecap="round"/>
<path d="M76.7344 78.9054C72.7605 81.201 59.5599 88.6686 35.5376 88.6686" stroke="#BC11BC" stroke-width="2.94" stroke-miterlimit="10"/>
<path d="M76.2666 64.5949C74.5859 61.4099 75.9261 56.9901 79.0915 55.2751C82.2569 53.5601 86.6914 54.8512 88.4431 57.997C90.3198 61.3707 89.085 65.6386 87.1495 68.9804C85.1234 72.4814 81.6493 76.0682 76.7346 78.9078" stroke="#00E0E5" stroke-width="2.94" stroke-miterlimit="10"/>
<path d="M104.66 57.2083C101.178 62.8923 95.3325 67.0793 88.8302 68.5469C84.2193 69.5857 78.4716 68.7747 76.2666 64.595" stroke="#FF4C2E" stroke-width="2.94" stroke-miterlimit="10"/>
<path d="M12.724 87.6447C11.5701 86.6867 10.862 85.4495 10.8302 84.0848C10.7567 80.917 14.3533 78.2636 18.8613 78.1583C23.3717 78.0529 27.0859 80.5372 27.1594 83.7051C27.1913 85.0697 26.542 86.3364 25.4322 87.3482C26.5861 88.3062 27.2942 89.5434 27.326 90.9081C27.3995 94.0759 23.8029 96.7293 19.2949 96.8346C14.7845 96.94 11.0703 94.4557 10.9968 91.2878C10.9649 89.9232 11.6142 88.6565 12.724 87.6447V87.6447Z" fill="#FF4C2E"/>
<path d="M51.1593 52.7297L34.879 48.8416L36.9223 41.3225L43.3266 38.8578C44.9289 38.2404 46.7419 38.5859 48.0061 39.7447L53.3569 44.6496L51.1593 52.7322V52.7297Z" fill="#7B78FF"/>
<path d="M47.5259 33.2718L48.8146 34.6903C49.0939 34.9966 49.1429 35.4474 48.9371 35.8075L47.9865 37.4711C47.7807 37.8312 47.3667 38.0174 46.9624 37.9341L45.0857 37.5446C44.6815 37.4613 44.3752 37.1256 44.3311 36.714L44.1204 34.8104C44.0763 34.3988 44.2993 34.0043 44.6766 33.8353L46.4234 33.0464C46.8007 32.8773 47.2442 32.968 47.5235 33.2742L47.5259 33.2718Z" fill="#BC11BC"/>
</svg>
