<svg width="114" height="114" viewBox="0 0 114 114" fill="none" xmlns="http://www.w3.org/2000/svg">
<g clip-path="url(#clip0_127_1652)">
<path d="M71.7612 46.8026L98.1884 52.25C103.202 53.2823 106.86 57.6127 107.045 62.7266C107.246 68.3117 103.265 73.1768 97.749 74.082L90.1469 75.3314" stroke="#BC11BC" stroke-width="11.8371" stroke-linecap="round" stroke-linejoin="round"/>
<path d="M47.2138 137H28.897L51.6131 54.0129H69.9299L47.2138 137Z" fill="#202124"/>
<path d="M86.8597 137H105.182L82.4604 54.0129H64.1436L86.8597 137Z" fill="#202124"/>
<path d="M94.2131 70.0482L92.9002 73.6321L79.9143 68.8941C79.1626 68.6188 78.7708 67.7824 79.0461 67.0307C79.3161 66.3001 80.1102 65.9084 80.8566 66.1466L94.2131 70.0482Z" fill="#BC11BC"/>
<path d="M12.9409 43.3351C17.7425 48.846 30.7284 65.4 58.1772 49.8942" stroke="#BC11BC" stroke-width="11.8371" stroke-linecap="round" stroke-linejoin="round"/>
<path d="M13.8286 39.4538L9.46973 40.9081L10.924 45.267L15.2829 43.8128L13.8286 39.4538Z" fill="#BC11BC"/>
<path d="M20.2465 45.0027L16.5354 45.908L13.2426 32.4826C13.0521 31.7044 13.5285 30.9156 14.312 30.7251C15.069 30.5398 15.8366 30.9845 16.0537 31.7362L20.2465 45.0027Z" fill="#BC11BC"/>
<path d="M9.61644 45.8763C9.02882 46.4533 8.63707 47.3638 8.63707 47.3638L0.426239 38.6289C-0.150795 38.0413 -0.140207 37.099 0.447415 36.5219C1.03504 35.9449 1.97735 35.9555 2.55438 36.5431L9.63761 43.7693C10.2146 44.3569 10.2041 45.2992 9.61644 45.8763Z" fill="#BC11BC"/>
<path d="M1.46256 33.7657L1.45878 33.7694C0.872088 34.3446 0.86272 35.2864 1.43785 35.8731L8.52357 43.1012C9.0987 43.6879 10.0405 43.6973 10.6272 43.1221L10.631 43.1184C11.2177 42.5433 11.2271 41.6015 10.6519 41.0148L3.56621 33.7867C2.99108 33.2 2.04925 33.1906 1.46256 33.7657Z" fill="#BC11BC"/>
<path d="M3.33023 31.5625L3.32645 31.5662C2.73976 32.1413 2.73039 33.0831 3.30552 33.6698L10.3913 40.898C10.9664 41.4847 11.9082 41.494 12.4949 40.9189L12.4987 40.9152C13.0854 40.3401 13.0947 39.3982 12.5196 38.8115L5.43389 31.5834C4.85876 30.9967 3.91692 30.9873 3.33023 31.5625Z" fill="#BC11BC"/>
<path d="M6.31998 30.7688L6.3162 30.7725C5.72951 31.3476 5.72014 32.2894 6.29527 32.8761L13.381 40.1043C13.9561 40.691 14.898 40.7003 15.4847 40.1252L15.4884 40.1215C16.0751 39.5464 16.0845 38.6045 15.5094 38.0178L8.42364 30.7897C7.84851 30.203 6.90667 30.1936 6.31998 30.7688Z" fill="#BC11BC"/>
<path d="M5.89488 41.6623C5.85783 41.5564 8.75888 37.2525 11.9087 36.7549" stroke="#202124" stroke-width="0.592916" stroke-miterlimit="10" stroke-linecap="round"/>
<path d="M14.3068 36.9083C14.3068 36.9083 11.2787 40.3335 13.4757 43.6739" stroke="#202124" stroke-width="0.592916" stroke-miterlimit="10" stroke-linecap="round"/>
<path d="M2.05127 36.2942L6.54049 40.704" stroke="#202124" stroke-width="0.592916" stroke-miterlimit="10" stroke-linecap="round"/>
<path d="M3.63965 33.8538L8.14475 38.65" stroke="#202124" stroke-width="0.592916" stroke-miterlimit="10" stroke-linecap="round"/>
<path d="M6.10645 32.3186L10.2304 37.2525" stroke="#202124" stroke-width="0.592916" stroke-miterlimit="10" stroke-linecap="round"/>
<path d="M45.3501 76.8773H88.7177L81.878 51.3872C79.8186 43.7163 72.4337 38.7242 64.5511 39.6665C57.8225 40.4765 52.3327 45.4422 50.861 52.0595L45.3501 76.872V76.8773Z" fill="#00E0E5"/>
<path d="M65.3292 36.4372L56.7161 31.2069C55.689 30.5822 55.689 29.0893 56.7161 28.4646L65.3292 23.2343C65.8427 22.9219 66.4833 22.9219 66.9915 23.2343L75.6047 28.4646C76.6317 29.0893 76.6317 30.5822 75.6047 31.2069L66.9915 36.4372C66.478 36.7496 65.8374 36.7496 65.3292 36.4372V36.4372Z" fill="#FF4C2E"/>
<path d="M88.5345 72.2888L87.3174 76.7197L91.7483 77.9369L92.9655 73.5059L88.5345 72.2888Z" fill="#BC11BC"/>
<path d="M91.5286 79.3653C91.6822 80.1753 94.6097 80.5935 93.805 80.747L80.4009 82.9704C79.5909 83.124 78.8127 82.5893 78.6645 81.7793C78.511 80.9693 79.0456 80.1911 79.8556 80.0429L91.2639 77.9042L91.5392 79.3706L91.5286 79.3653Z" fill="#BC11BC"/>
<path d="M76.927 79.4041C76.7758 78.5977 77.3085 77.8191 78.115 77.6679L89.5204 75.5293L90.0697 78.4587L78.6643 80.5973C77.8578 80.7485 77.0792 80.2158 76.928 79.4093L76.927 79.4041Z" fill="#BC11BC"/>
<path d="M76.1365 76.626C75.9853 75.8195 76.5179 75.0409 77.3244 74.8897L88.7299 72.7511L89.2792 75.6805L77.8737 77.8191C77.0672 77.9703 76.2887 77.4376 76.1375 76.6312L76.1365 76.626Z" fill="#BC11BC"/>
<path d="M77.1404 73.7035C76.9892 72.897 77.5219 72.1184 78.3284 71.9672L89.7338 69.8286L90.2831 72.758L78.8776 74.8966C78.0711 75.0478 77.2926 74.5152 77.1414 73.7087L77.1404 73.7035Z" fill="#BC11BC"/>
<path d="M77.9551 80.8795L85.52 79.0425" stroke="#202124" stroke-width="0.592916" stroke-miterlimit="10" stroke-linecap="round"/>
<path d="M76.8115 78.2007L84.71 76.5702" stroke="#202124" stroke-width="0.592916" stroke-miterlimit="10" stroke-linecap="round"/>
<path d="M78.3101 74.7384L84.7051 74.0608" stroke="#202124" stroke-width="0.592916" stroke-miterlimit="10" stroke-linecap="round"/>
<path d="M86.5894 70.4187L88.2728 70.1011" stroke="#202124" stroke-width="0.592916" stroke-miterlimit="10" stroke-linecap="round"/>
</g>
<defs>
<clipPath id="clip0_127_1652">
<rect width="114" height="114" fill="white"/>
</clipPath>
</defs>
</svg>
