<svg width="982" height="179" viewBox="0 0 982 179" fill="none" xmlns="http://www.w3.org/2000/svg">
<g clip-path="url(#clip0_6058_200029)">
<rect x="3" y="3" width="247.545" height="173" rx="42.1951" fill="black" fill-opacity="0.05" stroke="black" style="fill:black;fill-opacity:0.05;stroke:black;stroke-opacity:1;" stroke-width="4.21951"/>
<path d="M185.846 49.4146C185.846 45.5306 188.994 42.3821 192.878 42.3821H206.943C210.827 42.3821 213.976 45.5306 213.976 49.4146V84.5772C213.976 88.4612 210.827 91.6097 206.943 91.6097H192.878C188.994 91.6097 185.846 88.4612 185.846 84.5772V49.4146Z" fill="black" style="fill:black;fill-opacity:1;"/>
<path d="M216.789 121.146C216.789 130.468 209.232 138.024 199.911 138.024C190.589 138.024 183.033 130.468 183.033 121.146C183.033 111.825 190.589 104.268 199.911 104.268C209.232 104.268 216.789 111.825 216.789 121.146Z" fill="black" style="fill:black;fill-opacity:1;"/>
<path d="M46.6016 138.024C42.7177 138.024 39.5691 134.876 39.5691 130.992V49.4146C39.5691 45.5306 42.7177 42.3821 46.6016 42.3821H64.3192C66.4555 42.3821 68.4761 43.3532 69.8106 45.0214L90.3378 70.6803C93.1531 74.1995 98.5054 74.1995 101.321 70.6803L121.848 45.0214C123.182 43.3532 125.203 42.3821 127.339 42.3821H145.057C148.941 42.3821 152.089 45.5306 152.089 49.4146V130.992C152.089 134.876 148.941 138.024 145.057 138.024H130.992C127.108 138.024 123.959 134.876 123.959 130.992V103.219C123.959 96.5712 115.588 93.6347 111.435 98.8257L101.321 111.469C98.5054 114.988 93.1531 114.988 90.3378 111.469L80.2232 98.8257C76.0704 93.6347 67.6992 96.5712 67.6992 103.219V130.992C67.6992 134.876 64.5506 138.024 60.6667 138.024H46.6016Z" fill="black" style="fill:black;fill-opacity:1;"/>
<path d="M322.38 49.7273C322.38 48.0704 323.724 46.7273 325.38 46.7273H339.714C340.932 46.7273 342.028 47.4632 342.49 48.5899L367.442 109.493C367.559 109.779 367.838 109.966 368.147 109.966C368.457 109.966 368.735 109.779 368.853 109.493L393.805 48.5899C394.266 47.4632 395.363 46.7273 396.581 46.7273H410.914C412.571 46.7273 413.914 48.0704 413.914 49.7273V131C413.914 132.657 412.571 134 410.914 134H401.744C400.087 134 398.744 132.657 398.744 131V74.5261C398.744 74.2591 398.528 74.0426 398.26 74.0426C398.063 74.0426 397.886 74.1623 397.812 74.345L374.573 131.868C374.115 133.002 373.014 133.744 371.791 133.744H364.505C363.281 133.744 362.18 133.001 361.723 131.866L338.482 74.2174C338.409 74.0346 338.231 73.9148 338.034 73.9148C337.767 73.9148 337.551 74.1312 337.551 74.3982V131C337.551 132.657 336.208 134 334.551 134H325.38C323.724 134 322.38 132.657 322.38 131V49.7273Z" fill="black" style="fill:black;fill-opacity:1;"/>
<path d="M444.484 135.321C440.336 135.321 436.6 134.582 433.276 133.105C429.981 131.599 427.367 129.384 425.435 126.457C423.532 123.531 422.58 119.923 422.58 115.634C422.58 111.94 423.262 108.886 424.626 106.472C425.989 104.057 427.85 102.125 430.208 100.676C432.566 99.2273 435.222 98.1335 438.177 97.3949C441.16 96.6279 444.242 96.0739 447.424 95.733C451.259 95.3353 454.37 94.9801 456.757 94.6676C459.143 94.3267 460.876 93.8154 461.955 93.1335C463.063 92.4233 463.617 91.3296 463.617 89.8523V89.5966C463.617 86.3864 462.666 83.9006 460.762 82.1392C458.859 80.3779 456.117 79.4972 452.538 79.4972C448.759 79.4972 445.762 80.321 443.546 81.9688C442.121 83.0421 440.998 84.242 440.176 85.5685C439.417 86.7927 438.083 87.6603 436.657 87.4578L428.12 86.2454C426.318 85.9895 425.141 84.1902 425.863 82.5194C426.976 79.9422 428.467 77.699 430.336 75.7898C432.95 73.0909 436.146 71.0739 439.924 69.7387C443.703 68.375 447.879 67.6932 452.453 67.6932C455.606 67.6932 458.745 68.0625 461.87 68.8012C464.995 69.5398 467.85 70.7614 470.435 72.4659C473.021 74.1421 475.095 76.429 476.657 79.3267C478.248 82.2245 479.043 85.8466 479.043 90.1932V131C479.043 132.657 477.7 134 476.043 134H467.214C465.557 134 464.214 132.657 464.214 131V125.326C464.214 125.151 464.072 125.009 463.896 125.009C463.777 125.009 463.669 125.075 463.613 125.18C462.681 126.934 461.39 128.581 459.739 130.122C458.063 131.685 455.947 132.949 453.39 133.915C450.862 134.852 447.893 135.321 444.484 135.321ZM448.489 123.986C451.586 123.986 454.271 123.375 456.543 122.153C458.816 120.903 460.563 119.256 461.785 117.21C463.035 115.165 463.66 112.935 463.66 110.52V105.531C463.66 104.445 462.231 103.61 461.188 103.915C460.052 104.256 458.774 104.554 457.353 104.81C455.933 105.065 454.526 105.293 453.134 105.492C451.742 105.69 450.535 105.861 449.512 106.003C447.211 106.315 445.151 106.827 443.333 107.537C441.515 108.247 440.08 109.241 439.029 110.52C437.978 111.77 437.453 113.389 437.453 115.378C437.453 118.219 438.489 120.364 440.563 121.813C442.637 123.261 445.279 123.986 448.489 123.986Z" fill="black" style="fill:black;fill-opacity:1;"/>
<path d="M492.755 134C491.098 134 489.755 132.657 489.755 131V71.5455C489.755 69.8886 491.098 68.5455 492.755 68.5455H501.712C503.369 68.5455 504.712 69.8886 504.712 71.5455V79.0611C504.712 79.2784 504.888 79.4546 505.106 79.4546C505.277 79.4546 505.429 79.3429 505.483 79.1799C506.687 75.5348 508.703 72.7144 511.53 70.7188C514.456 68.6449 517.795 67.608 521.545 67.608C522.397 67.608 523.349 67.6506 524.4 67.7358C524.482 67.7402 524.563 67.7447 524.643 67.7496C526.071 67.8355 527.084 69.0635 527.084 70.4935V79.0518C527.084 80.6037 525.514 81.8128 523.974 81.6279C522.581 81.429 521.232 81.3296 519.925 81.3296C517.113 81.3296 514.584 81.9404 512.34 83.1619C510.124 84.3551 508.377 86.0171 507.099 88.1478C505.82 90.2784 505.181 92.7358 505.181 95.5199V131C505.181 132.657 503.838 134 502.181 134H492.755Z" fill="black" style="fill:black;fill-opacity:1;"/>
<path d="M545.964 113.722C543.726 116.045 539.9 113.684 540.974 110.642L546.049 96.2661C546.351 95.4104 547.16 94.8381 548.067 94.8381C548.676 94.8381 549.257 94.5787 549.663 94.1247L571.653 69.5452C572.222 68.9091 573.035 68.5455 573.889 68.5455H583.846C586.442 68.5455 587.812 71.6188 586.078 73.5501L562.532 99.766C561.963 100.4 561.152 100.761 560.3 100.761H559.718C558.903 100.761 558.122 101.093 557.557 101.681L545.964 113.722ZM535.533 134C533.876 134 532.533 132.657 532.533 131V49.7273C532.533 48.0704 533.876 46.7273 535.533 46.7273H544.959C546.616 46.7273 547.959 48.0704 547.959 49.7273V131C547.959 132.657 546.616 134 544.959 134H535.533ZM575.155 134C574.187 134 573.278 133.533 572.715 132.745L553.752 106.236C552.913 105.063 553.028 103.458 554.025 102.416L560.213 95.9494C561.509 94.5952 563.715 94.7475 564.813 96.2669L588.629 129.244C590.062 131.228 588.644 134 586.197 134H575.155Z" fill="black" style="fill:black;fill-opacity:1;"/>
<path d="M599.053 158.545C597.396 158.545 596.053 157.202 596.053 155.545V71.5455C596.053 69.8886 597.396 68.5455 599.053 68.5455H608.224C609.881 68.5455 611.224 69.8886 611.224 71.5455V78.8163C611.224 79.1217 611.471 79.3693 611.777 79.3693C611.986 79.3693 612.177 79.2507 612.274 79.065C613.058 77.5633 614.128 75.9744 615.485 74.2983C616.934 72.4801 618.894 70.9318 621.366 69.6534C623.837 68.3466 626.991 67.6932 630.826 67.6932C635.883 67.6932 640.442 68.9858 644.505 71.571C648.596 74.1279 651.835 77.9205 654.221 82.9489C656.636 87.9489 657.843 94.0853 657.843 101.358C657.843 108.545 656.664 114.653 654.306 119.682C651.948 124.71 648.738 128.545 644.675 131.188C640.613 133.83 636.011 135.151 630.869 135.151C627.119 135.151 624.008 134.526 621.536 133.276C619.065 132.026 617.076 130.52 615.57 128.759C614.159 127.049 613.046 125.43 612.231 123.901C612.161 123.77 612.025 123.688 611.877 123.688C611.657 123.688 611.479 123.865 611.479 124.085V155.545C611.479 157.202 610.136 158.545 608.479 158.545H599.053ZM611.181 101.273C611.181 105.506 611.778 109.213 612.971 112.395C614.192 115.577 615.94 118.063 618.212 119.852C620.513 121.614 623.298 122.494 626.565 122.494C629.974 122.494 632.829 121.585 635.13 119.767C637.431 117.92 639.164 115.406 640.329 112.224C641.522 109.014 642.119 105.364 642.119 101.273C642.119 97.2103 641.536 93.6023 640.371 90.4489C639.207 87.2955 637.474 84.8239 635.173 83.0341C632.871 81.2443 630.002 80.3494 626.565 80.3494C623.269 80.3494 620.471 81.2159 618.17 82.9489C615.869 84.6818 614.121 87.1108 612.928 90.2358C611.763 93.3608 611.181 97.0398 611.181 101.273Z" fill="black" style="fill:black;fill-opacity:1;"/>
<path d="M669.253 134C667.596 134 666.253 132.657 666.253 131V71.5455C666.253 69.8886 667.596 68.5455 669.253 68.5455H678.211C679.867 68.5455 681.211 69.8886 681.211 71.5455V79.0611C681.211 79.2784 681.387 79.4546 681.604 79.4546C681.776 79.4546 681.927 79.3429 681.981 79.1799C683.186 75.5348 685.202 72.7144 688.029 70.7188C690.955 68.6449 694.293 67.608 698.043 67.608C698.895 67.608 699.847 67.6506 700.898 67.7358C700.98 67.7402 701.062 67.7447 701.142 67.7496C702.569 67.8355 703.583 69.0635 703.583 70.4935V79.0519C703.583 80.6037 702.013 81.8128 700.472 81.6279C699.08 81.429 697.731 81.3296 696.424 81.3296C693.611 81.3296 691.083 81.9404 688.838 83.1619C686.623 84.3551 684.875 86.0171 683.597 88.1478C682.319 90.2784 681.679 92.7358 681.679 95.5199V131C681.679 132.657 680.336 134 678.679 134H669.253Z" fill="black" style="fill:black;fill-opacity:1;"/>
<path d="M734.887 135.278C728.495 135.278 722.955 133.872 718.268 131.06C713.58 128.247 709.944 124.313 707.359 119.256C704.802 114.199 703.524 108.29 703.524 101.528C703.524 94.7671 704.802 88.8438 707.359 83.7585C709.944 78.6733 713.58 74.7245 718.268 71.912C722.955 69.0995 728.495 67.6932 734.887 67.6932C741.279 67.6932 746.819 69.0995 751.507 71.912C756.194 74.7245 759.816 78.6733 762.373 83.7585C764.958 88.8438 766.251 94.7671 766.251 101.528C766.251 108.29 764.958 114.199 762.373 119.256C759.816 124.313 756.194 128.247 751.507 131.06C746.819 133.872 741.279 135.278 734.887 135.278ZM734.972 122.92C738.438 122.92 741.336 121.969 743.666 120.065C745.995 118.134 747.728 115.548 748.865 112.31C750.029 109.071 750.612 105.463 750.612 101.486C750.612 97.4801 750.029 93.858 748.865 90.6193C747.728 87.3523 745.995 84.7529 743.666 82.821C741.336 80.8892 738.438 79.9233 734.972 79.9233C731.421 79.9233 728.467 80.8892 726.109 82.821C723.779 84.7529 722.032 87.3523 720.867 90.6193C719.731 93.858 719.163 97.4801 719.163 101.486C719.163 105.463 719.731 109.071 720.867 112.31C722.032 115.548 723.779 118.134 726.109 120.065C728.467 121.969 731.421 122.92 734.972 122.92Z" fill="black" style="fill:black;fill-opacity:1;"/>
<path d="M777.544 134C775.887 134 774.544 132.657 774.544 131V71.5455C774.544 69.8886 775.887 68.5455 777.544 68.5455H786.288C787.945 68.5455 789.288 69.8886 789.288 71.5455V79.2165C789.288 79.4657 789.49 79.6676 789.739 79.6676C789.929 79.6676 790.098 79.5486 790.165 79.3713C791.539 75.7632 793.761 72.9358 796.831 70.8892C799.984 68.7585 803.748 67.6932 808.123 67.6932C812.555 67.6932 816.291 68.7727 819.331 70.9318C822.307 72.9984 824.427 75.8 825.693 79.3366C825.763 79.5338 825.949 79.6676 826.159 79.6676C826.359 79.6676 826.538 79.5454 826.615 79.3608C828.078 75.8679 830.479 73.0725 833.819 70.9745C837.285 68.787 841.39 67.6932 846.135 67.6932C852.157 67.6932 857.072 69.5966 860.879 73.4034C864.686 77.2102 866.589 82.7642 866.589 90.0654V131C866.589 132.657 865.246 134 863.589 134H854.121C852.464 134 851.121 132.657 851.121 131V92.4517C851.121 88.3892 850.041 85.4205 847.882 83.5455C845.723 81.6421 843.081 80.6904 839.956 80.6904C836.234 80.6904 833.322 81.8551 831.22 84.1847C829.146 86.4858 828.109 89.483 828.109 93.1762V131C828.109 132.657 826.766 134 825.109 134H815.981C814.325 134 812.981 132.657 812.981 131V91.8125C812.981 88.4318 811.959 85.733 809.913 83.7159C807.896 81.6989 805.254 80.6904 801.987 80.6904C799.771 80.6904 797.754 81.2585 795.936 82.3949C794.118 83.5029 792.669 85.0796 791.589 87.125C790.51 89.1421 789.97 91.5 789.97 94.1989V131C789.97 132.657 788.627 134 786.97 134H777.544Z" fill="black" style="fill:black;fill-opacity:1;"/>
<path d="M880.439 158.545C878.782 158.545 877.439 157.202 877.439 155.545V71.5455C877.439 69.8886 878.782 68.5455 880.439 68.5455H889.61C891.266 68.5455 892.61 69.8886 892.61 71.5455V78.8163C892.61 79.1217 892.857 79.3693 893.163 79.3693C893.372 79.3693 893.563 79.2507 893.66 79.065C894.444 77.5633 895.514 75.9744 896.871 74.2983C898.32 72.4801 900.28 70.9318 902.752 69.6534C905.223 68.3466 908.377 67.6932 912.212 67.6932C917.269 67.6932 921.828 68.9858 925.891 71.571C929.982 74.1279 933.22 77.9205 935.607 82.9489C938.022 87.9489 939.229 94.0853 939.229 101.358C939.229 108.545 938.05 114.653 935.692 119.682C933.334 124.71 930.124 128.545 926.061 131.188C921.999 133.83 917.396 135.151 912.254 135.151C908.504 135.151 905.394 134.526 902.922 133.276C900.451 132.026 898.462 130.52 896.956 128.759C895.545 127.049 894.432 125.43 893.617 123.901C893.547 123.77 893.411 123.688 893.263 123.688C893.043 123.688 892.865 123.865 892.865 124.085V155.545C892.865 157.202 891.522 158.545 889.865 158.545H880.439ZM892.567 101.273C892.567 105.506 893.164 109.213 894.357 112.395C895.578 115.577 897.326 118.063 899.598 119.852C901.899 121.614 904.683 122.494 907.951 122.494C911.36 122.494 914.215 121.585 916.516 119.767C918.817 117.92 920.55 115.406 921.715 112.224C922.908 109.014 923.504 105.364 923.504 101.273C923.504 97.2103 922.922 93.6023 921.757 90.4489C920.593 87.2955 918.86 84.8239 916.558 83.0341C914.257 81.2443 911.388 80.3494 907.951 80.3494C904.655 80.3494 901.857 81.2159 899.556 82.9489C897.254 84.6818 895.507 87.1108 894.314 90.2358C893.149 93.3608 892.567 97.0398 892.567 101.273Z" fill="black" style="fill:black;fill-opacity:1;"/>
<path d="M977.324 68.5455C978.981 68.5455 980.324 69.8886 980.324 71.5455V77.4773C980.324 79.1342 978.981 80.4773 977.324 80.4773H945.696C944.039 80.4773 942.696 79.1341 942.696 77.4773V71.5455C942.696 69.8886 944.039 68.5455 945.696 68.5455H977.324ZM951.986 55.8637C951.986 54.2068 953.329 52.8637 954.986 52.8637H964.412C966.069 52.8637 967.412 54.2068 967.412 55.8637V114.313C967.412 116.386 967.724 117.977 968.349 119.085C969.003 120.165 969.855 120.903 970.906 121.301C971.957 121.699 973.122 121.898 974.401 121.898C975.366 121.898 976.247 121.827 977.043 121.685C978.069 121.508 979.101 122.154 979.321 123.173L980.956 130.76C981.276 132.244 980.432 133.722 978.955 134.074C978.648 134.147 978.323 134.222 977.98 134.298C976.474 134.639 974.628 134.838 972.44 134.895C968.577 135.009 965.097 134.426 962 133.148C958.903 131.841 956.446 129.824 954.628 127.097C952.838 124.369 951.957 120.96 951.986 116.869V55.8637Z" fill="black" style="fill:black;fill-opacity:1;"/>
</g>
<defs>
<clipPath id="clip0_6058_200029">
<rect width="982" height="179" fill="white" style="fill:white;fill-opacity:1;"/>
</clipPath>
</defs>
</svg>
