<svg width="276" height="137" viewBox="0 0 276 137" fill="none" xmlns="http://www.w3.org/2000/svg">
<g clip-path="url(#clip0_188_1688)">
<path d="M215.28 21.7314C215.28 25.8688 218.811 29.2228 223.166 29.2228C227.521 29.2228 231.052 25.8688 231.052 21.7314C231.052 17.594 227.521 14.24 223.166 14.24C218.811 14.24 215.28 17.594 215.28 21.7314Z" fill="#887EF9"/>
<path d="M261.806 148.384L261.806 92.2213C261.806 86.1723 256.902 81.2686 250.853 81.2686L194.69 81.2686C188.641 81.2686 183.737 86.1722 183.737 92.2213L183.737 148.384C183.737 154.433 188.641 159.337 194.69 159.337L250.853 159.337C256.902 159.337 261.806 154.433 261.806 148.384Z" fill="#EBEAFF"/>
<path d="M218.829 52.722L206.824 74.2618C205.255 77.0726 207.385 80.5108 210.654 80.4489L235.7 79.9733C238.969 79.9114 240.931 76.3942 239.226 73.6447L226.186 52.5805C224.481 49.8309 220.394 49.9055 218.829 52.722Z" fill="#B1C3E6"/>
<rect x="190.834" y="30.0114" width="64.7977" height="18.9257" rx="9.46286" fill="#FF6C44"/>
</g>
<defs>
<clipPath id="clip0_188_1688">
<rect y="0.0456543" width="276" height="136.423" rx="12.6171" fill="white"/>
</clipPath>
</defs>
</svg>
